<?xml version="1.0" encoding="UTF-8"?>
<svg version="1.1" xmlns="http://www.w3.org/2000/svg" width="600" height="200">
<path d="M0 0 C1.16080078 -0.00128906 2.32160156 -0.00257812 3.51757812 -0.00390625 C4.74025391 -0.00003906 5.96292969 0.00382812 7.22265625 0.0078125 C8.44146484 0.00394531 9.66027344 0.00007813 10.91601562 -0.00390625 C12.65915039 -0.00197266 12.65915039 -0.00197266 14.4375 0 C15.50991943 0.00112793 16.58233887 0.00225586 17.68725586 0.00341797 C20.28515625 0.1328125 20.28515625 0.1328125 22.28515625 1.1328125 C23.63721836 1.2614442 24.99206929 1.36163429 26.34765625 1.4453125 C31.5153161 1.94865599 35.69327923 3.79887974 40.28515625 6.1328125 C40.28515625 6.7928125 40.28515625 7.4528125 40.28515625 8.1328125 C41.21328125 8.5040625 41.21328125 8.5040625 42.16015625 8.8828125 C44.63584312 10.33909889 45.23640627 11.51093756 46.28515625 14.1328125 C46.94515625 14.1328125 47.60515625 14.1328125 48.28515625 14.1328125 C48.28515625 15.4528125 48.28515625 16.7728125 48.28515625 18.1328125 C48.94515625 18.1328125 49.60515625 18.1328125 50.28515625 18.1328125 C50.28515625 18.7928125 50.28515625 19.4528125 50.28515625 20.1328125 C60.18515625 20.1328125 70.08515625 20.1328125 80.28515625 20.1328125 C84.28515625 28.1328125 84.28515625 28.1328125 84.28515625 30.1328125 C84.94515625 30.1328125 85.60515625 30.1328125 86.28515625 30.1328125 C86.28515625 31.4528125 86.28515625 32.7728125 86.28515625 34.1328125 C86.94515625 34.1328125 87.60515625 34.1328125 88.28515625 34.1328125 C89.27515625 37.1028125 89.27515625 37.1028125 90.28515625 40.1328125 C91.27515625 40.1328125 92.26515625 40.1328125 93.28515625 40.1328125 C93.55328125 39.2665625 93.82140625 38.4003125 94.09765625 37.5078125 C95.25627612 34.21489286 96.66725464 31.22153375 98.28515625 28.1328125 C98.94515625 28.1328125 99.60515625 28.1328125 100.28515625 28.1328125 C100.28515625 26.8128125 100.28515625 25.4928125 100.28515625 24.1328125 C100.94515625 24.1328125 101.60515625 24.1328125 102.28515625 24.1328125 C102.28515625 22.8128125 102.28515625 21.4928125 102.28515625 20.1328125 C114.82515625 20.1328125 127.36515625 20.1328125 140.28515625 20.1328125 C138.03515625 26.8828125 138.03515625 26.8828125 136.28515625 30.1328125 C135.62515625 30.1328125 134.96515625 30.1328125 134.28515625 30.1328125 C133.91390625 31.3703125 133.91390625 31.3703125 133.53515625 32.6328125 C132.09810814 36.65654721 130.2616111 40.35260274 128.28515625 44.1328125 C127.62515625 44.1328125 126.96515625 44.1328125 126.28515625 44.1328125 C125.91390625 45.3703125 125.91390625 45.3703125 125.53515625 46.6328125 C124.09810814 50.65654721 122.2616111 54.35260274 120.28515625 58.1328125 C119.62515625 58.1328125 118.96515625 58.1328125 118.28515625 58.1328125 C117.91390625 59.3703125 117.91390625 59.3703125 117.53515625 60.6328125 C116.09810814 64.65654721 114.2616111 68.35260274 112.28515625 72.1328125 C112.94515625 72.1328125 113.60515625 72.1328125 114.28515625 72.1328125 C114.95670558 73.42194737 115.62224484 74.71421454 116.28515625 76.0078125 C116.65640625 76.72710937 117.02765625 77.44640625 117.41015625 78.1875 C118.28515625 80.1328125 118.28515625 80.1328125 118.28515625 82.1328125 C118.94515625 82.1328125 119.60515625 82.1328125 120.28515625 82.1328125 C120.28515625 83.4528125 120.28515625 84.7728125 120.28515625 86.1328125 C120.94515625 86.1328125 121.60515625 86.1328125 122.28515625 86.1328125 C122.95670558 87.42194737 123.62224484 88.71421454 124.28515625 90.0078125 C124.65640625 90.72710937 125.02765625 91.44640625 125.41015625 92.1875 C126.28515625 94.1328125 126.28515625 94.1328125 126.28515625 96.1328125 C126.94515625 96.1328125 127.60515625 96.1328125 128.28515625 96.1328125 C128.28515625 97.4528125 128.28515625 98.7728125 128.28515625 100.1328125 C128.94515625 100.1328125 129.60515625 100.1328125 130.28515625 100.1328125 C130.95670558 101.42194737 131.62224484 102.71421454 132.28515625 104.0078125 C132.65640625 104.72710937 133.02765625 105.44640625 133.41015625 106.1875 C134.28515625 108.1328125 134.28515625 108.1328125 134.28515625 110.1328125 C134.94515625 110.1328125 135.60515625 110.1328125 136.28515625 110.1328125 C137.28999829 112.08866575 138.2888943 114.04757487 139.28515625 116.0078125 C140.12046875 117.64363281 140.12046875 117.64363281 140.97265625 119.3125 C142.28515625 122.1328125 142.28515625 122.1328125 142.28515625 124.1328125 C130.07515625 124.1328125 117.86515625 124.1328125 105.28515625 124.1328125 C104.95515625 122.8128125 104.62515625 121.4928125 104.28515625 120.1328125 C103.62515625 120.1328125 102.96515625 120.1328125 102.28515625 120.1328125 C102.28515625 118.8128125 102.28515625 117.4928125 102.28515625 116.1328125 C101.62515625 116.1328125 100.96515625 116.1328125 100.28515625 116.1328125 C99.28031421 114.17695925 98.2814182 112.21805013 97.28515625 110.2578125 C96.72828125 109.16726562 96.17140625 108.07671875 95.59765625 106.953125 C94.28515625 104.1328125 94.28515625 104.1328125 94.28515625 102.1328125 C93.62515625 102.1328125 92.96515625 102.1328125 92.28515625 102.1328125 C92.28515625 101.4728125 92.28515625 100.8128125 92.28515625 100.1328125 C91.62515625 100.1328125 90.96515625 100.1328125 90.28515625 100.1328125 C89.62515625 102.1128125 88.96515625 104.0928125 88.28515625 106.1328125 C87.62515625 106.1328125 86.96515625 106.1328125 86.28515625 106.1328125 C86.28515625 107.4528125 86.28515625 108.7728125 86.28515625 110.1328125 C85.62515625 110.1328125 84.96515625 110.1328125 84.28515625 110.1328125 C84.28515625 111.4528125 84.28515625 112.7728125 84.28515625 114.1328125 C83.62515625 114.1328125 82.96515625 114.1328125 82.28515625 114.1328125 C81.99640625 115.0403125 81.70765625 115.9478125 81.41015625 116.8828125 C80.28515625 120.1328125 80.28515625 120.1328125 78.28515625 124.1328125 C69.70515625 124.1328125 61.12515625 124.1328125 52.28515625 124.1328125 C52.28515625 127.4328125 52.28515625 130.7328125 52.28515625 134.1328125 C40.40515625 134.1328125 28.52515625 134.1328125 16.28515625 134.1328125 C15.62515625 130.8328125 14.96515625 127.5328125 14.28515625 124.1328125 C13.62515625 124.1328125 12.96515625 124.1328125 12.28515625 124.1328125 C12.28515625 124.7928125 12.28515625 125.4528125 12.28515625 126.1328125 C11.62515625 126.1328125 10.96515625 126.1328125 10.28515625 126.1328125 C10.28515625 126.7928125 10.28515625 127.4528125 10.28515625 128.1328125 C9.62515625 128.1328125 8.96515625 128.1328125 8.28515625 128.1328125 C8.28515625 128.7928125 8.28515625 129.4528125 8.28515625 130.1328125 C7.62515625 130.1328125 6.96515625 130.1328125 6.28515625 130.1328125 C6.28515625 130.7928125 6.28515625 131.4528125 6.28515625 132.1328125 C-0.40568154 136.1791763 -5.48704725 136.6464906 -13.21484375 136.3828125 C-14.22804688 136.36476562 -15.24125 136.34671875 -16.28515625 136.328125 C-18.76272982 136.28137833 -21.23826691 136.21587622 -23.71484375 136.1328125 C-23.71484375 135.4728125 -23.71484375 134.8128125 -23.71484375 134.1328125 C-25.03484375 134.1328125 -26.35484375 134.1328125 -27.71484375 134.1328125 C-27.71484375 133.4728125 -27.71484375 132.8128125 -27.71484375 132.1328125 C-28.37484375 132.1328125 -29.03484375 132.1328125 -29.71484375 132.1328125 C-29.71484375 131.4728125 -29.71484375 130.8128125 -29.71484375 130.1328125 C-30.37484375 130.1328125 -31.03484375 130.1328125 -31.71484375 130.1328125 C-31.71484375 129.4728125 -31.71484375 128.8128125 -31.71484375 128.1328125 C-32.37484375 128.1328125 -33.03484375 128.1328125 -33.71484375 128.1328125 C-34.04484375 126.8128125 -34.37484375 125.4928125 -34.71484375 124.1328125 C-43.62484375 124.1328125 -52.53484375 124.1328125 -61.71484375 124.1328125 C-61.7398999 121.75537842 -61.76495605 119.37794434 -61.79077148 116.9284668 C-61.87417533 109.08135509 -61.96287026 101.23430965 -62.05418301 93.38728619 C-62.10939321 88.6287385 -62.16281023 83.87018464 -62.2121582 79.11157227 C-62.25982973 74.52093423 -62.31217365 69.93037126 -62.3677845 65.33982277 C-62.38819539 63.58672767 -62.40691057 61.833612 -62.42391777 60.08048058 C-62.44798974 57.62869187 -62.47804053 55.17704499 -62.50952148 52.7253418 C-62.51527695 51.99741928 -62.52103241 51.26949677 -62.52696228 50.51951599 C-62.57177292 47.4577325 -62.7388528 45.06078536 -63.71484375 42.1328125 C-65.69484375 42.1328125 -67.67484375 42.1328125 -69.71484375 42.1328125 C-70.90824289 45.71300991 -70.89068717 48.99700282 -70.92016602 52.7253418 C-70.93006561 53.49631195 -70.93996521 54.2672821 -70.95016479 55.06161499 C-70.98175331 57.61005583 -71.00652675 60.15851532 -71.03125 62.70703125 C-71.05182181 64.473948 -71.07281835 66.24085986 -71.09422302 68.00776672 C-71.1494202 72.65853917 -71.19883987 77.30935586 -71.24707031 81.96020508 C-71.29730251 86.70593199 -71.35297961 91.45159464 -71.40820312 96.19726562 C-71.51575593 105.50906173 -71.61670417 114.82091242 -71.71484375 124.1328125 C-82.27484375 124.1328125 -92.83484375 124.1328125 -103.71484375 124.1328125 C-104.04484375 97.0728125 -104.37484375 70.0128125 -104.71484375 42.1328125 C-107.68484375 42.6278125 -107.68484375 42.6278125 -110.71484375 43.1328125 C-111.91144277 46.89933905 -111.88073884 50.63646254 -111.90429688 54.54760742 C-111.91259018 55.2878566 -111.92088348 56.02810577 -111.9294281 56.79078674 C-111.94679072 58.39385562 -111.96196779 59.99694934 -111.97520447 61.6000576 C-111.9962634 64.13369182 -112.02328038 66.66720028 -112.05187988 69.20075989 C-112.12164467 75.48930596 -112.18122684 81.77794088 -112.24090576 88.06658936 C-112.29175308 93.38706752 -112.34653147 98.7074759 -112.40672302 104.02785683 C-112.43337371 106.53012166 -112.45413687 109.03239278 -112.47473145 111.53471375 C-112.49132546 113.0585461 -112.5081965 114.58237547 -112.52539062 116.10620117 C-112.52957504 116.80697784 -112.53375946 117.50775452 -112.53807068 118.22976685 C-112.60099195 123.0189607 -112.60099195 123.0189607 -113.71484375 124.1328125 C-123.61484375 124.1328125 -133.51484375 124.1328125 -143.71484375 124.1328125 C-143.71484375 89.8128125 -143.71484375 55.4928125 -143.71484375 20.1328125 C-133.81484375 20.1328125 -123.91484375 20.1328125 -113.71484375 20.1328125 C-113.71484375 22.7728125 -113.71484375 25.4128125 -113.71484375 28.1328125 C-113.05484375 28.1328125 -112.39484375 28.1328125 -111.71484375 28.1328125 C-111.71484375 27.4728125 -111.71484375 26.8128125 -111.71484375 26.1328125 C-111.05484375 26.1328125 -110.39484375 26.1328125 -109.71484375 26.1328125 C-109.71484375 25.4728125 -109.71484375 24.8128125 -109.71484375 24.1328125 C-109.05484375 24.1328125 -108.39484375 24.1328125 -107.71484375 24.1328125 C-107.71484375 23.4728125 -107.71484375 22.8128125 -107.71484375 22.1328125 C-106.72484375 22.1328125 -105.73484375 22.1328125 -104.71484375 22.1328125 C-104.71484375 21.4728125 -104.71484375 20.8128125 -104.71484375 20.1328125 C-100.46292398 18.07226677 -96.91179161 17.86402471 -92.21484375 17.8828125 C-90.92578125 17.87765625 -89.63671875 17.8725 -88.30859375 17.8671875 C-84.96248165 18.11450883 -82.70795322 18.6823056 -79.71484375 20.1328125 C-79.71484375 20.7928125 -79.71484375 21.4528125 -79.71484375 22.1328125 C-79.05484375 22.1328125 -78.39484375 22.1328125 -77.71484375 22.1328125 C-77.71484375 22.7928125 -77.71484375 23.4528125 -77.71484375 24.1328125 C-77.05484375 24.1328125 -76.39484375 24.1328125 -75.71484375 24.1328125 C-74.08984375 26.6328125 -74.08984375 26.6328125 -72.71484375 29.1328125 C-71.72484375 27.6478125 -71.72484375 27.6478125 -70.71484375 26.1328125 C-70.05484375 26.1328125 -69.39484375 26.1328125 -68.71484375 26.1328125 C-68.71484375 25.4728125 -68.71484375 24.8128125 -68.71484375 24.1328125 C-68.05484375 24.1328125 -67.39484375 24.1328125 -66.71484375 24.1328125 C-66.71484375 23.4728125 -66.71484375 22.8128125 -66.71484375 22.1328125 C-65.72484375 22.1328125 -64.73484375 22.1328125 -63.71484375 22.1328125 C-63.71484375 21.4728125 -63.71484375 20.8128125 -63.71484375 20.1328125 C-59.45541821 18.06110747 -55.50143466 17.74751483 -50.83984375 17.7578125 C-50.12820068 17.75869873 -49.41655762 17.75958496 -48.68334961 17.76049805 C-43.17208217 17.88548017 -39.89284901 18.56622264 -35.71484375 22.1328125 C-35.21984375 23.6178125 -35.21984375 23.6178125 -34.71484375 25.1328125 C-34.38484375 22.8228125 -34.05484375 20.5128125 -33.71484375 18.1328125 C-33.05484375 18.1328125 -32.39484375 18.1328125 -31.71484375 18.1328125 C-31.71484375 16.8128125 -31.71484375 15.4928125 -31.71484375 14.1328125 C-31.05484375 14.1328125 -30.39484375 14.1328125 -29.71484375 14.1328125 C-29.38484375 12.8128125 -29.05484375 11.4928125 -28.71484375 10.1328125 C-28.05484375 10.1328125 -27.39484375 10.1328125 -26.71484375 10.1328125 C-26.71484375 9.4728125 -26.71484375 8.8128125 -26.71484375 8.1328125 C-25.06484375 7.4728125 -23.41484375 6.8128125 -21.71484375 6.1328125 C-21.71484375 5.4728125 -21.71484375 4.8128125 -21.71484375 4.1328125 C-17.30528407 2.43682801 -13.23845818 1.76205389 -8.5703125 1.37890625 C-5.45255823 0.96539358 -3.59174894 0.00378164 0 0 Z M1.28515625 26.1328125 C-1.14719301 30.64559666 -2.20427415 34.99379333 -1.71484375 40.1328125 C-1.38484375 40.7928125 -1.05484375 41.4528125 -0.71484375 42.1328125 C-10.61484375 42.1328125 -20.51484375 42.1328125 -30.71484375 42.1328125 C-30.38484375 48.0728125 -30.05484375 54.0128125 -29.71484375 60.1328125 C-29.05484375 60.1328125 -28.39484375 60.1328125 -27.71484375 60.1328125 C-27.71484375 59.4728125 -27.71484375 58.8128125 -27.71484375 58.1328125 C-27.1528125 58.0090625 -26.59078125 57.8853125 -26.01171875 57.7578125 C-23.54021759 57.08529518 -21.31439323 56.15045176 -18.96484375 55.1328125 C-14.46437133 53.28595196 -10.53815511 52.57129535 -5.71484375 52.1328125 C-5.38484375 51.8028125 -5.05484375 51.4728125 -4.71484375 51.1328125 C-3.30156428 50.97660695 -1.88129785 50.88225077 -0.4609375 50.81640625 C0.39306641 50.77451172 1.24707031 50.73261719 2.12695312 50.68945312 C3.47370117 50.63047852 3.47370117 50.63047852 4.84765625 50.5703125 C6.20020508 50.50553711 6.20020508 50.50553711 7.58007812 50.43945312 C9.8149411 50.33303108 12.04991933 50.23101262 14.28515625 50.1328125 C14.34335049 46.88288804 14.37881741 43.63309815 14.41015625 40.3828125 C14.42691406 39.46242188 14.44367188 38.54203125 14.4609375 37.59375 C14.46738281 36.70429687 14.47382813 35.81484375 14.48046875 34.8984375 C14.49094238 34.08149414 14.50141602 33.26455078 14.51220703 32.42285156 C14.25660821 29.84487631 13.68353629 28.30677931 12.28515625 26.1328125 C8.3493791 23.50896107 5.04977103 23.21827203 1.28515625 26.1328125 Z M52.28515625 40.1328125 C52.28515625 59.9328125 52.28515625 79.7328125 52.28515625 100.1328125 C52.94515625 100.1328125 53.60515625 100.1328125 54.28515625 100.1328125 C54.94515625 99.0396875 55.60515625 97.9465625 56.28515625 96.8203125 C56.65640625 96.20542969 57.02765625 95.59054688 57.41015625 94.95703125 C58.50139624 93.01919324 58.50139624 93.01919324 58.28515625 90.1328125 C58.94515625 90.1328125 59.60515625 90.1328125 60.28515625 90.1328125 C60.95670558 88.84367763 61.62224484 87.55141046 62.28515625 86.2578125 C62.65640625 85.53851563 63.02765625 84.81921875 63.41015625 84.078125 C64.42189371 82.18432273 64.42189371 82.18432273 64.28515625 80.1328125 C64.94515625 80.1328125 65.60515625 80.1328125 66.28515625 80.1328125 C66.28515625 78.8128125 66.28515625 77.4928125 66.28515625 76.1328125 C66.94515625 76.1328125 67.60515625 76.1328125 68.28515625 76.1328125 C70.04978308 73.04471555 70.28515625 71.89969114 70.28515625 68.1328125 C69.62515625 68.1328125 68.96515625 68.1328125 68.28515625 68.1328125 C68.28515625 66.8128125 68.28515625 65.4928125 68.28515625 64.1328125 C67.62515625 64.1328125 66.96515625 64.1328125 66.28515625 64.1328125 C66.17300781 63.58109375 66.06085938 63.029375 65.9453125 62.4609375 C65.17154852 59.73216039 64.01697931 57.40508307 62.72265625 54.8828125 C62.26761719 53.99078125 61.81257812 53.09875 61.34375 52.1796875 C60.99441406 51.50421875 60.64507812 50.82875 60.28515625 50.1328125 C59.62515625 50.1328125 58.96515625 50.1328125 58.28515625 50.1328125 C58.18203125 49.5965625 58.07890625 49.0603125 57.97265625 48.5078125 C57.10422928 45.50779206 55.72895329 42.894859 54.28515625 40.1328125 C53.62515625 40.1328125 52.96515625 40.1328125 52.28515625 40.1328125 Z M6.28515625 74.1328125 C6.28515625 74.7928125 6.28515625 75.4528125 6.28515625 76.1328125 C4.96515625 76.1328125 3.64515625 76.1328125 2.28515625 76.1328125 C2.28515625 76.7928125 2.28515625 77.4528125 2.28515625 78.1328125 C1.62515625 78.1328125 0.96515625 78.1328125 0.28515625 78.1328125 C-1.95318338 83.53325098 -2.01551429 88.39015143 -1.96484375 94.1328125 C-1.97257813 95.009375 -1.9803125 95.8859375 -1.98828125 96.7890625 C-1.97368256 101.63582905 -1.59988615 105.58477369 0.28515625 110.1328125 C0.94515625 110.1328125 1.60515625 110.1328125 2.28515625 110.1328125 C2.28515625 110.7928125 2.28515625 111.4528125 2.28515625 112.1328125 C3.72005434 112.26818024 5.15862732 112.36498393 6.59765625 112.4453125 C7.79841797 112.53232422 7.79841797 112.53232422 9.0234375 112.62109375 C11.47151765 112.34316325 11.47151765 112.34316325 12.90820312 110.08398438 C14.60138329 106.45505498 14.66526801 103.34302233 14.578125 99.42578125 C14.57175774 98.33768913 14.57175774 98.33768913 14.56526184 97.22761536 C14.54855168 94.92479359 14.51091585 92.62286697 14.47265625 90.3203125 C14.45759941 88.7532679 14.44391275 87.1862095 14.43164062 85.61914062 C14.39867356 81.79002293 14.34694617 77.96156916 14.28515625 74.1328125 C11.64515625 74.1328125 9.00515625 74.1328125 6.28515625 74.1328125 Z " fill="#DC7730" transform="translate(435.71484375,38.8671875)"/>
<path d="M0 0 C0.99 0.66 1.98 1.32 3 2 C3 2.66 3 3.32 3 4 C3.66 4 4.32 4 5 4 C5.495 5.98 5.495 5.98 6 8 C6.66 8 7.32 8 8 8 C10.48024466 17.6131752 10.27318294 27.0247736 10.23046875 36.87890625 C10.22927496 38.70067818 10.22882421 40.52245072 10.2290802 42.34422302 C10.22752408 46.14073603 10.2192958 49.93715356 10.20581055 53.73364258 C10.18871254 58.60964514 10.18499977 63.48554418 10.18575573 68.36157322 C10.18548466 72.11292007 10.18001548 75.86424412 10.17275429 79.61558342 C10.16956592 81.41500616 10.16759982 83.21443148 10.16686058 85.01385689 C10.16470495 87.51522421 10.15598098 90.01647894 10.14526367 92.51782227 C10.14571686 93.2652771 10.14617004 94.01273193 10.14663696 94.78283691 C10.11448544 99.88551456 10.11448544 99.88551456 9 101 C4.53312257 101.41359187 0.04443714 101.51695445 -4.4375 101.6875 C-5.70400391 101.74744141 -6.97050781 101.80738281 -8.27539062 101.86914062 C-9.48259766 101.91619141 -10.68980469 101.96324219 -11.93359375 102.01171875 C-13.04790771 102.05772217 -14.16222168 102.10372559 -15.31030273 102.15112305 C-18 102 -18 102 -20 100 C-20.2067205 97.54268271 -20.29051194 95.19554459 -20.28710938 92.73632812 C-20.29394241 91.98822372 -20.30077545 91.24011932 -20.30781555 90.46934509 C-20.32141954 88.84278884 -20.33046254 87.21618961 -20.33552551 85.58958435 C-20.34379278 83.01794404 -20.3642763 80.44666259 -20.38806152 77.87512207 C-20.44456659 71.48850019 -20.47971333 65.10179126 -20.51568604 58.71502686 C-20.54688284 53.31987754 -20.58603992 47.92490169 -20.63594055 42.52989197 C-20.6560686 39.99162519 -20.66434041 37.45349124 -20.67224121 34.91516113 C-20.6852091 33.36465974 -20.69872875 31.81416282 -20.71289062 30.26367188 C-20.71141777 29.19916054 -20.71141777 29.19916054 -20.70991516 28.11314392 C-20.65513243 24.11065128 -20.65513243 24.11065128 -23 21 C-25.08333333 21.16666667 -25.08333333 21.16666667 -27 22 C-27.33 22.66 -27.66 23.32 -28 24 C-28.66 24 -29.32 24 -30 24 C-30 49.08 -30 74.16 -30 100 C-34.59912479 101.5330416 -36.81715177 102.25402867 -41.328125 102.265625 C-42.77445313 102.26949219 -42.77445313 102.26949219 -44.25 102.2734375 C-45.24 102.26570313 -46.23 102.25796875 -47.25 102.25 C-48.25546875 102.25773437 -49.2609375 102.26546875 -50.296875 102.2734375 C-51.2559375 102.27085937 -52.215 102.26828125 -53.203125 102.265625 C-54.07614258 102.26336914 -54.94916016 102.26111328 -55.84863281 102.25878906 C-58 102 -58 102 -60 100 C-60.18848472 96.89582582 -60.25160454 93.88146099 -60.22705078 90.77685547 C-60.22734283 89.8207135 -60.22763489 88.86457153 -60.22793579 87.87945557 C-60.22653876 84.70860828 -60.21095999 81.53799391 -60.1953125 78.3671875 C-60.1915837 76.17286304 -60.1887361 73.97853692 -60.18673706 71.78421021 C-60.17909015 66.00062486 -60.15943259 60.21713951 -60.1373291 54.43359375 C-60.11689343 48.53517001 -60.10774023 42.63673016 -60.09765625 36.73828125 C-60.07618768 25.1588031 -60.04099693 13.5794255 -60 2 C-50.1 2 -40.2 2 -30 2 C-29.67 4.31 -29.34 6.62 -29 9 C-28.21625 8.175 -27.4325 7.35 -26.625 6.5 C-24 4 -24 4 -22 4 C-22 3.34 -22 2.68 -22 2 C-14.30056343 -2.12226471 -8.38021936 -2.52554556 0 0 Z " fill="#DC7932" transform="translate(194,59)"/>
<path d="M0 0 C1.29031128 0.13220947 1.29031128 0.13220947 2.60668945 0.26708984 C8.70405477 0.97639527 13.54982532 2.26287282 18.9375 5.3125 C18.9375 5.9725 18.9375 6.6325 18.9375 7.3125 C19.5975 7.3125 20.2575 7.3125 20.9375 7.3125 C20.9375 7.9725 20.9375 8.6325 20.9375 9.3125 C21.5975 9.3125 22.2575 9.3125 22.9375 9.3125 C27.17457285 17.22170266 29.2056461 24.0623837 29.1328125 33.09375 C29.12781738 34.37314453 29.12282227 35.65253906 29.11767578 36.97070312 C29.09946777 38.56849609 29.08125977 40.16628906 29.0625 41.8125 C29.02125 46.9275 28.98 52.0425 28.9375 57.3125 C15.7375 57.3125 2.5375 57.3125 -11.0625 57.3125 C-11.0625 65.8925 -11.0625 74.4725 -11.0625 83.3125 C-10.4025 83.3125 -9.7425 83.3125 -9.0625 83.3125 C-9.0625 83.9725 -9.0625 84.6325 -9.0625 85.3125 C-6.4225 85.3125 -3.7825 85.3125 -1.0625 85.3125 C0.63717317 80.21348049 0.52526871 74.67150683 0.9375 69.3125 C10.1775 69.3125 19.4175 69.3125 28.9375 69.3125 C30.42075018 72.27900035 29.85724157 74.77645515 29.625 78.0625 C29.54636719 79.27421875 29.46773438 80.4859375 29.38671875 81.734375 C28.95532736 85.17050116 28.15226505 88.07973749 26.9375 91.3125 C26.2775 91.3125 25.6175 91.3125 24.9375 91.3125 C24.5353125 92.5190625 24.5353125 92.5190625 24.125 93.75 C23.733125 94.595625 23.34125 95.44125 22.9375 96.3125 C21.9475 96.6425 20.9575 96.9725 19.9375 97.3125 C19.9375 97.9725 19.9375 98.6325 19.9375 99.3125 C18.9475 99.3125 17.9575 99.3125 16.9375 99.3125 C16.9375 99.9725 16.9375 100.6325 16.9375 101.3125 C12.92084964 103.2560405 9.21328371 103.71065662 4.828125 104.06640625 C2.92846139 104.11823168 2.92846139 104.11823168 1.9375 105.3125 C-0.39410055 105.41159302 -2.72879942 105.44220504 -5.0625 105.4375 C-6.34125 105.44007813 -7.62 105.44265625 -8.9375 105.4453125 C-12.0625 105.3125 -12.0625 105.3125 -13.0625 104.3125 C-14.238125 104.209375 -15.41375 104.10625 -16.625 104 C-23.0927132 103.25685163 -28.9454571 100.45880362 -33.0625 95.3125 C-33.0625 94.6525 -33.0625 93.9925 -33.0625 93.3125 C-33.7225 93.3125 -34.3825 93.3125 -35.0625 93.3125 C-40.23823819 83.99617126 -41.37443527 75.18558399 -41.328125 64.625 C-41.33003845 63.64184814 -41.3319519 62.65869629 -41.33392334 61.64575195 C-41.33527502 59.58186586 -41.3316503 57.51797097 -41.32324219 55.45410156 C-41.31252827 52.32076662 -41.3231725 49.18800491 -41.3359375 46.0546875 C-41.33461572 44.03645709 -41.33205296 42.01822702 -41.328125 40 C-41.33217346 39.07678955 -41.33622192 38.1535791 -41.34039307 37.20239258 C-41.29658359 31.03211513 -40.48117743 25.31563912 -39.0625 19.3125 C-38.4025 19.3125 -37.7425 19.3125 -37.0625 19.3125 C-36.8459375 17.889375 -36.8459375 17.889375 -36.625 16.4375 C-36.0625 13.3125 -36.0625 13.3125 -35.0625 11.3125 C-34.4025 11.3125 -33.7425 11.3125 -33.0625 11.3125 C-32.4025 9.9925 -31.7425 8.6725 -31.0625 7.3125 C-30.4025 7.3125 -29.7425 7.3125 -29.0625 7.3125 C-29.0625 6.6525 -29.0625 5.9925 -29.0625 5.3125 C-28.0725 5.3125 -27.0825 5.3125 -26.0625 5.3125 C-26.0625 4.6525 -26.0625 3.9925 -26.0625 3.3125 C-21.86674158 1.21462079 -17.87310813 0.89678755 -13.26953125 0.55859375 C-4.28740896 -0.44295263 -4.28740896 -0.44295263 0 0 Z M-8.0625 17.3125 C-8.0625 17.9725 -8.0625 18.6325 -8.0625 19.3125 C-8.7225 19.3125 -9.3825 19.3125 -10.0625 19.3125 C-11.2107685 21.609037 -11.17811175 22.89563167 -11.16015625 25.4453125 C-11.15693359 26.25097656 -11.15371094 27.05664062 -11.15039062 27.88671875 C-11.14201172 28.72847656 -11.13363281 29.57023437 -11.125 30.4375 C-11.12048828 31.28699219 -11.11597656 32.13648438 -11.11132812 33.01171875 C-11.09952874 35.11200909 -11.08159306 37.2122633 -11.0625 39.3125 C-7.1025 39.3125 -3.1425 39.3125 0.9375 39.3125 C0.9375 33.3725 0.9375 27.4325 0.9375 21.3125 C0.2775 21.3125 -0.3825 21.3125 -1.0625 21.3125 C-1.7225 19.9925 -2.3825 18.6725 -3.0625 17.3125 C-4.7125 17.3125 -6.3625 17.3125 -8.0625 17.3125 Z " fill="#DD7A34" transform="translate(251.0625,57.6875)"/>
<path d="M0 0 C0 0.66 0 1.32 0 2 C0.66 2 1.32 2 2 2 C2 2.66 2 3.32 2 4 C2.66 4 3.32 4 4 4 C4 4.66 4 5.32 4 6 C4.66 6 5.32 6 6 6 C6 7.32 6 8.64 6 10 C6.66 10 7.32 10 8 10 C10.52173029 17.88040715 10 22.95160597 10 32 C0.76 32 -8.48 32 -18 32 C-18.66 28.04 -19.32 24.08 -20 20 C-20.66 18.35 -21.32 16.7 -22 15 C-24.31 15 -26.62 15 -29 15 C-30.6762655 18.66622206 -31.24894607 21.51598321 -31.24291992 25.53710938 C-31.24599655 26.62173462 -31.24907318 27.70635986 -31.25224304 28.82385254 C-31.24505753 29.9854187 -31.23787201 31.14698486 -31.23046875 32.34375 C-31.23001053 33.54559937 -31.22955231 34.74744873 -31.2290802 35.98571777 C-31.22606215 38.52417998 -31.21818923 41.0626404 -31.20581055 43.60107422 C-31.18756848 47.48541836 -31.18530087 51.36952376 -31.18554688 55.25390625 C-31.1806308 57.72135623 -31.17480209 60.18880459 -31.16796875 62.65625 C-31.16685593 63.81781616 -31.1657431 64.97938232 -31.16459656 66.17614746 C-31.15821671 67.26077271 -31.15183685 68.34539795 -31.14526367 69.46289062 C-31.14145187 70.41377563 -31.13764008 71.36466064 -31.13371277 72.34436035 C-31.00060886 74.98790763 -30.58744195 77.42258089 -30 80 C-27.36 80 -24.72 80 -22 80 C-22 79.34 -22 78.68 -22 78 C-21.34 78 -20.68 78 -20 78 C-20 72.06 -20 66.12 -20 60 C-10.1 60 -0.2 60 10 60 C11.98454964 67.93819857 10.238427 76.24011973 8 84 C7.34 84 6.68 84 6 84 C6 85.32 6 86.64 6 88 C5.34 88 4.68 88 4 88 C4 88.66 4 89.32 4 90 C3.34 90 2.68 90 2 90 C2 90.66 2 91.32 2 92 C1.34 92 0.68 92 0 92 C0 92.66 0 93.32 0 94 C-0.99 94 -1.98 94 -3 94 C-3 94.66 -3 95.32 -3 96 C-4.32 96 -5.64 96 -7 96 C-7 96.66 -7 97.32 -7 98 C-7.62648437 98.06058594 -8.25296875 98.12117188 -8.8984375 98.18359375 C-9.71570313 98.26738281 -10.53296875 98.35117188 -11.375 98.4375 C-12.18710938 98.51871094 -12.99921875 98.59992188 -13.8359375 98.68359375 C-16.04272805 98.89090114 -16.04272805 98.89090114 -18 100 C-20.3525384 100.0969531 -22.7079695 100.1297905 -25.0625 100.125 C-26.33222656 100.12757813 -27.60195313 100.13015625 -28.91015625 100.1328125 C-32 100 -32 100 -33 99 C-34.35163027 98.8669073 -35.70677373 98.76889008 -37.0625 98.6875 C-42.11341091 98.20183549 -45.6039679 96.47776355 -50 94 C-50 93.34 -50 92.68 -50 92 C-50.66 92 -51.32 92 -52 92 C-52 91.34 -52 90.68 -52 90 C-52.66 90 -53.32 90 -54 90 C-54.63032133 88.79443396 -55.2539497 87.58536811 -55.875 86.375 C-56.22304688 85.70210938 -56.57109375 85.02921875 -56.9296875 84.3359375 C-59.10778069 79.58228887 -60.25007358 75.3900785 -60.29052734 70.15332031 C-60.30328705 69.0248468 -60.31604675 67.89637329 -60.32919312 66.73370361 C-60.33253159 64.9241922 -60.33253159 64.9241922 -60.3359375 63.078125 C-60.3425943 61.82296082 -60.3492511 60.56779663 -60.35610962 59.27459717 C-60.3662222 56.62172232 -60.37179404 53.96925747 -60.37060547 51.31640625 C-60.37040283 47.94299611 -60.39766137 44.57043359 -60.43214989 41.19722366 C-60.45995175 37.94922409 -60.45857315 34.70122722 -60.4609375 31.453125 C-60.47530853 30.25488098 -60.48967957 29.05663696 -60.50448608 27.82208252 C-60.46432076 20.37368254 -59.33767105 14.66567918 -56 8 C-55.62676605 7.24906067 -55.2535321 6.49812134 -54.86898804 5.72442627 C-54.58222198 5.1553656 -54.29545593 4.58630493 -54 4 C-53.34 4 -52.68 4 -52 4 C-52 3.34 -52 2.68 -52 2 C-51.34 2 -50.68 2 -50 2 C-50 1.34 -50 0.68 -50 0 C-48.68 0 -47.36 0 -46 0 C-46 -0.66 -46 -1.32 -46 -2 C-31.96020312 -8.22818057 -13.38541587 -7.30113593 0 0 Z " fill="#DD7832" transform="translate(82,63)"/>
<path d="M0 0 C9.57 0 19.14 0 29 0 C29.77456649 3.09826595 30.11877564 5.02284633 30.08229065 8.08758545 C30.07525116 8.89242874 30.06821167 9.69727203 30.06095886 10.52650452 C30.04801285 11.40044357 30.03506683 12.27438263 30.02172852 13.17480469 C30.01212097 14.101978 30.00251343 15.02915131 29.99261475 15.98442078 C29.95965163 19.04698342 29.91930893 22.10940222 29.87890625 25.171875 C29.85460252 27.29607639 29.83075908 29.4202831 29.80735779 31.54449463 C29.74454212 37.13407444 29.67546825 42.72356013 29.60510254 48.31304932 C29.53439643 54.01724972 29.46959308 59.72151681 29.40429688 65.42578125 C29.27531695 76.6172608 29.1397273 87.80864983 29 99 C24.54234428 99.22506224 20.08394312 99.4272243 15.625 99.625 C14.35398437 99.68945312 13.08296875 99.75390625 11.7734375 99.8203125 C10.56171875 99.871875 9.35 99.9234375 8.1015625 99.9765625 C6.98088379 100.02893066 5.86020508 100.08129883 4.70556641 100.13525391 C2 100 2 100 0 98 C-0.18848472 94.89582582 -0.25160454 91.88146099 -0.22705078 88.77685547 C-0.22734283 87.8207135 -0.22763489 86.86457153 -0.22793579 85.87945557 C-0.22653876 82.70860828 -0.21095999 79.53799391 -0.1953125 76.3671875 C-0.1915837 74.17286304 -0.1887361 71.97853692 -0.18673706 69.78421021 C-0.17909015 64.00062486 -0.15943259 58.21713951 -0.1373291 52.43359375 C-0.11689343 46.53517001 -0.10774023 40.63673016 -0.09765625 34.73828125 C-0.07618768 23.1588031 -0.04099693 11.5794255 0 0 Z " fill="#DD7A35" transform="translate(98,61)"/>
<path d="M0 0 C9.57 0 19.14 0 29 0 C29.185625 3.031875 29.37125 6.06375 29.5625 9.1875 C29.62381104 10.13391357 29.68512207 11.08032715 29.74829102 12.05541992 C29.79139404 12.81443604 29.83449707 13.57345215 29.87890625 14.35546875 C29.9260376 15.12528076 29.97316895 15.89509277 30.02172852 16.68823242 C30 19 30 19 29 24 C19.43 24 9.86 24 0 24 C0 16.08 0 8.16 0 0 Z " fill="#DC7127" transform="translate(98,25)"/>
<path d="M0 0 C9.9 0 19.8 0 30 0 C30 0.66 30 1.32 30 2 C20.43 2 10.86 2 1 2 C1 35 1 68 1 102 C10.24 102 19.48 102 29 102 C28.98952637 99.82003418 28.97905273 97.64006836 28.96826172 95.39404297 C28.93508336 88.18165477 28.91301489 80.96926314 28.89637566 73.75681877 C28.8859501 69.38503855 28.87181335 65.01333669 28.84912109 60.64160156 C28.82734889 56.42057655 28.81542213 52.1996268 28.81024551 47.97854996 C28.80655761 46.37024883 28.79935607 44.7619517 28.78853989 43.15368271 C28.77396668 40.89647351 28.77202448 38.63957309 28.77294922 36.38232422 C28.768508 35.09881073 28.76406677 33.81529724 28.75949097 32.4928894 C29.00005969 28.9991332 29.73716409 26.25198913 31 23 C32.22326511 26.77702888 32.10180045 30.49373497 32.03759766 34.41479492 C32.02559578 35.52516869 32.02559578 35.52516869 32.01335144 36.65797424 C31.98552348 39.0989021 31.9500324 41.53964829 31.9140625 43.98046875 C31.892291 45.67629091 31.87084156 47.37211724 31.84970093 49.06794739 C31.8042457 52.61786336 31.75502161 56.16770181 31.703125 59.7175293 C31.63674611 64.27748348 31.57953826 68.83749829 31.52509499 73.39760876 C31.48235491 76.89680645 31.43490688 80.3959279 31.38599777 83.89504433 C31.36303779 85.5772239 31.34153599 87.25942401 31.32149124 88.94164085 C31.29283358 91.28565426 31.25788383 93.62948918 31.22119141 95.97338867 C31.2138649 96.67416534 31.20653839 97.37494202 31.19898987 98.09695435 C31.11427965 102.88572035 31.11427965 102.88572035 30 104 C20.1 104 10.2 104 0 104 C0 69.68 0 35.36 0 0 Z " fill="#EAB38A" transform="translate(292,59)"/>
<path d="M0 0 C9.9 0 19.8 0 30 0 C30.33 2.31 30.66 4.62 31 7 C31.66 6.67 32.32 6.34 33 6 C32.34 7.32 31.68 8.64 31 10 C30.01 10 29.02 10 28 10 C28 7.03 28 4.06 28 1 C19.42 1 10.84 1 2 1 C2 33.01 2 65.02 2 98 C10.91 98 19.82 98 29 98 C25.63541082 100.24305946 24.46483729 100.25653373 20.52734375 100.265625 C19.46322266 100.26820313 18.39910156 100.27078125 17.30273438 100.2734375 C16.19220703 100.26570313 15.08167969 100.25796875 13.9375 100.25 C12.82310547 100.25773437 11.70871094 100.26546875 10.56054688 100.2734375 C9.49771484 100.27085937 8.43488281 100.26828125 7.33984375 100.265625 C6.36394287 100.26336914 5.38804199 100.26111328 4.38256836 100.25878906 C2 100 2 100 0 98 C-0.18848472 94.89582582 -0.25160454 91.88146099 -0.22705078 88.77685547 C-0.22734283 87.8207135 -0.22763489 86.86457153 -0.22793579 85.87945557 C-0.22653876 82.70860828 -0.21095999 79.53799391 -0.1953125 76.3671875 C-0.1915837 74.17286304 -0.1887361 71.97853692 -0.18673706 69.78421021 C-0.17909015 64.00062486 -0.15943259 58.21713951 -0.1373291 52.43359375 C-0.11689343 46.53517001 -0.10774023 40.63673016 -0.09765625 34.73828125 C-0.07618768 23.1588031 -0.04099693 11.5794255 0 0 Z " fill="#F5E6DA" transform="translate(134,61)"/>
<path d="M0 0 C9.57 0 19.14 0 29 0 C29.185625 3.031875 29.37125 6.06375 29.5625 9.1875 C29.62381104 10.13391357 29.68512207 11.08032715 29.74829102 12.05541992 C29.79139404 12.81443604 29.83449707 13.57345215 29.87890625 14.35546875 C29.9260376 15.12528076 29.97316895 15.89509277 30.02172852 16.68823242 C30 19 30 19 29 24 C19.43 24 9.86 24 0 24 C0 16.08 0 8.16 0 0 Z M2 2 C2 8.6 2 15.2 2 22 C10.58 22 19.16 22 28 22 C28 15.4 28 8.8 28 2 C19.42 2 10.84 2 2 2 Z " fill="#E3AD83" transform="translate(98,25)"/>
<path d="M0 0 C4.29648445 4.29648445 3 7.46391781 3 14 C11.25 14 19.5 14 28 14 C28 9.38 28 4.76 28 0 C30 2 30 2 30 16 C20.76 16 11.52 16 2 16 C1.34 10.72 0.68 5.44 0 0 Z " fill="#E7C9AC" transform="translate(62,79)"/>
<path d="M0 0 C9.9 0 19.8 0 30 0 C30.95550495 3.82201978 31.00596479 6.25589047 30.6875 10.125 C30.56955078 11.70667969 30.56955078 11.70667969 30.44921875 13.3203125 C30 16 30 16 28 18 C28 12.39 28 6.78 28 1 C19.42 1 10.84 1 2 1 C2 5.29 2 9.58 2 14 C1.34 14.99 0.68 15.98 0 17 C0 11.39 0 5.78 0 0 Z " fill="#ECBC96" transform="translate(62,123)"/>
<path d="M0 0 C0.99 0.99 1.98 1.98 3 3 C3 3.66 3 4.32 3 5 C2.34 5 1.68 5 1 5 C1 24.8 1 44.6 1 65 C1.66 65 2.32 65 3 65 C2.625 66.9375 2.625 66.9375 2 69 C1.01 69.495 1.01 69.495 0 70 C0 46.9 0 23.8 0 0 Z " fill="#FCC59B" transform="translate(487,74)"/>
<path d="M0 0 C0.33 0 0.66 0 1 0 C1 5.94 1 11.88 1 18 C4.96 18 8.92 18 13 18 C13 12.06 13 6.12 13 0 C13.33 0 13.66 0 14 0 C14 6.6 14 13.2 14 20 C9.05 20 4.1 20 -1 20 C-1.02689449 17.04160645 -1.04678741 14.08345573 -1.0625 11.125 C-1.07087891 10.28324219 -1.07925781 9.44148438 -1.08789062 8.57421875 C-1.09111328 7.76855469 -1.09433594 6.96289062 -1.09765625 6.1328125 C-1.10289307 5.38918457 -1.10812988 4.64555664 -1.11352539 3.87939453 C-1 2 -1 2 0 0 Z " fill="#F5E3D1" transform="translate(239,79)"/>
<path d="M0 0 C0.33 0.66 0.66 1.32 1 2 C-8.9 2 -18.8 2 -29 2 C-28.67 2.66 -28.34 3.32 -28 4 C-27.74037691 6.83854574 -27.53378724 9.65584025 -27.375 12.5 C-27.3234375 13.28503906 -27.271875 14.07007812 -27.21875 14.87890625 C-26.87621208 20.75242416 -26.87621208 20.75242416 -28 23 C-28.66 23 -29.32 23 -30 23 C-30 15.74 -30 8.48 -30 1 C-15.15 0.505 -15.15 0.505 0 0 Z " fill="#F7CCAB" transform="translate(434,79)"/>
<path d="M0 0 C9.24 0 18.48 0 28 0 C28.33 2.31 28.66 4.62 29 7 C29.66 6.67 30.32 6.34 31 6 C30.34 7.32 29.68 8.64 29 10 C28.01 10 27.02 10 26 10 C26 7.03 26 4.06 26 1 C17.42 1 8.84 1 0 1 C0 0.67 0 0.34 0 0 Z " fill="#EDAF80" transform="translate(136,61)"/>
<path d="M0 0 C0.99 0.66 1.98 1.32 3 2 C3 2.66 3 3.32 3 4 C2.01 4 1.02 4 0 4 C0 3.34 0 2.68 0 2 C-7.68395543 1.7862269 -14.56340812 1.98329712 -22 4 C-22 3.34 -22 2.68 -22 2 C-14.30056343 -2.12226471 -8.38021936 -2.52554556 0 0 Z " fill="#E6B28A" transform="translate(194,59)"/>
<path d="M0 0 C1.22589844 0.15275391 1.22589844 0.15275391 2.4765625 0.30859375 C3.41628906 0.43427734 3.41628906 0.43427734 4.375 0.5625 C4.375 0.8925 4.375 1.2225 4.375 1.5625 C-2.885 2.2225 -10.145 2.8825 -17.625 3.5625 C-17.295 2.9025 -16.965 2.2425 -16.625 1.5625 C-14.41015625 1.18359375 -14.41015625 1.18359375 -11.6875 1 C-7.4250277 0.69948037 -4.25185253 -0.54666675 0 0 Z " fill="#F4CFB3" transform="translate(246.625,57.4375)"/>
<path d="M0 0 C0.66 0 1.32 0 2 0 C1.67 1.32 1.34 2.64 1 4 C-1.64 4 -4.28 4 -7 4 C-7.33 3.34 -7.66 2.68 -8 2 C-5.36 2 -2.72 2 0 2 C0 1.34 0 0.68 0 0 Z " fill="#E9C5A7" transform="translate(60,141)"/>
<path d="M0 0 C0.66 0 1.32 0 2 0 C2 1.32 2 2.64 2 4 C1.34 4 0.68 4 0 4 C0 5.32 0 6.64 0 8 C-0.66 8 -1.32 8 -2 8 C-2 6.02 -2 4.04 -2 2 C-1.34 2 -0.68 2 0 2 C0 1.34 0 0.68 0 0 Z " fill="#E7AE84" transform="translate(88,143)"/>
<path d="M0 0 C2.38564077 0.57584432 4.66682784 1.22227595 7 2 C7 2.66 7 3.32 7 4 C7.66 4 8.32 4 9 4 C8.67 4.66 8.34 5.32 8 6 C4.74456771 5.65120368 3.98126893 4.97866739 1.75 2.4375 C1.1725 1.633125 0.595 0.82875 0 0 Z " fill="#EDC09C" transform="translate(263,61)"/>
</svg>
